<?xml version="1.0" encoding="us-ascii" standalone="no"?><svg xmlns="http://www.w3.org/2000/svg" xmlns:xlink="http://www.w3.org/1999/xlink" contentStyleType="text/css" height="1042px" preserveAspectRatio="none" style="width:1624px;height:1042px;background:#FFFFFF;" version="1.1" viewBox="0 0 1624 1042" width="1624px" zoomAndPan="magnify"><defs/><g><rect fill="#DDDDDD" height="1017.7813" rx="5" ry="5" style="stroke:#181818;stroke-width:0.5;" width="418" x="222.5" y="18.6406"/><rect fill="#DDDDDD" height="1017.7813" rx="5" ry="5" style="stroke:#181818;stroke-width:0.5;" width="346" x="779" y="18.6406"/><rect fill="#DDDDDD" height="1017.7813" rx="5" ry="5" style="stroke:#181818;stroke-width:0.5;" width="347.5" x="1157" y="18.6406"/><text fill="#888888" font-family="sans-serif" font-size="10" lengthAdjust="spacing" textLength="65" x="1551.5" y="14.2822">Flow of funds</text><line style="stroke:#181818;stroke-width:0.5;stroke-dasharray:5.0,5.0;" x1="28" x2="28" y1="98.9375" y2="954.125"/><line style="stroke:#181818;stroke-width:0.5;stroke-dasharray:5.0,5.0;" x1="262" x2="262" y1="98.9375" y2="954.125"/><rect fill="#FFFFFF" height="378.7266" style="stroke:#181818;stroke-width:1.0;" width="10" x="257" y="153.0703"/><line style="stroke:#181818;stroke-width:0.5;stroke-dasharray:5.0,5.0;" x1="600" x2="600" y1="98.9375" y2="954.125"/><rect fill="#FFFFFF" height="29.1328" style="stroke:#181818;stroke-width:1.0;" width="10" x="595" y="327.8672"/><line style="stroke:#181818;stroke-width:0.5;stroke-dasharray:5.0,5.0;" x1="824" x2="824" y1="98.9375" y2="954.125"/><line style="stroke:#181818;stroke-width:0.5;stroke-dasharray:5.0,5.0;" x1="1058" x2="1058" y1="98.9375" y2="954.125"/><line style="stroke:#181818;stroke-width:0.5;stroke-dasharray:5.0,5.0;" x1="1203.5" x2="1203.5" y1="98.9375" y2="954.125"/><line style="stroke:#181818;stroke-width:0.5;stroke-dasharray:5.0,5.0;" x1="1305.5" x2="1305.5" y1="98.9375" y2="954.125"/><line style="stroke:#181818;stroke-width:0.5;stroke-dasharray:5.0,5.0;" x1="1453.5" x2="1453.5" y1="98.9375" y2="954.125"/><rect fill="#FFFFFF" height="58.2656" style="stroke:#181818;stroke-width:1.0;" width="10" x="1448.5" y="444.3984"/><line style="stroke:#181818;stroke-width:0.5;stroke-dasharray:5.0,5.0;" x1="1595.5" x2="1595.5" y1="98.9375" y2="954.125"/><text fill="#000000" font-family="sans-serif" font-size="14" lengthAdjust="spacing" textLength="40" x="5" y="95.6357">Buyer</text><ellipse cx="28" cy="31.1406" fill="#FF0000" rx="8" ry="8" style="stroke:#181818;stroke-width:0.5;"/><path d="M28,39.1406 L28,66.1406 M15,47.1406 L41,47.1406 M28,66.1406 L15,81.1406 M28,66.1406 L41,81.1406 " fill="none" style="stroke:#181818;stroke-width:0.5;"/><rect fill="#E2E2F0" height="30.2969" rx="5" ry="5" style="stroke:#181818;stroke-width:0.5;" width="31" x="246.5" y="67.6406"/><text fill="#000000" font-family="sans-serif" font-size="14" lengthAdjust="spacing" textLength="17" x="253.5" y="87.6357">FE</text><rect fill="#E2E2F0" height="30.2969" rx="5" ry="5" style="stroke:#181818;stroke-width:0.5;" width="33" x="583.5" y="67.6406"/><text fill="#000000" font-family="sans-serif" font-size="14" lengthAdjust="spacing" textLength="19" x="590.5" y="87.6357">BE</text><rect fill="#E2E2F0" height="30.2969" rx="5" ry="5" style="stroke:#181818;stroke-width:0.5;" width="42" x="803" y="67.6406"/><text fill="#000000" font-family="sans-serif" font-size="14" lengthAdjust="spacing" textLength="28" x="810" y="87.6357">TSC</text><rect fill="#E2E2F0" height="30.2969" rx="5" ry="5" style="stroke:#181818;stroke-width:0.5;" width="86" x="1015" y="67.6406"/><text fill="#000000" font-family="sans-serif" font-size="14" lengthAdjust="spacing" textLength="72" x="1022" y="87.6357">Prefunded</text><rect fill="#E2E2F0" height="30.2969" rx="5" ry="5" style="stroke:#181818;stroke-width:0.5;" width="45" x="1181" y="67.6406"/><text fill="#000000" font-family="sans-serif" font-size="14" lengthAdjust="spacing" textLength="31" x="1188" y="87.6357">Privy</text><rect fill="#E2E2F0" height="30.2969" rx="5" ry="5" style="stroke:#181818;stroke-width:0.5;" width="59" x="1276" y="67.6406"/><text fill="#000000" font-family="sans-serif" font-size="14" lengthAdjust="spacing" textLength="45" x="1283" y="87.6357">Bridge</text><rect fill="#E2E2F0" height="30.2969" rx="5" ry="5" style="stroke:#181818;stroke-width:0.5;" width="54" x="1426.5" y="67.6406"/><text fill="#000000" font-family="sans-serif" font-size="14" lengthAdjust="spacing" textLength="40" x="1433.5" y="87.6357">Stripe</text><text fill="#000000" font-family="sans-serif" font-size="14" lengthAdjust="spacing" textLength="38" x="1573.5" y="95.6357">Seller</text><ellipse cx="1595.5" cy="31.1406" fill="#0000FF" rx="8" ry="8" style="stroke:#181818;stroke-width:0.5;"/><path d="M1595.5,39.1406 L1595.5,66.1406 M1582.5,47.1406 L1608.5,47.1406 M1595.5,66.1406 L1582.5,81.1406 M1595.5,66.1406 L1608.5,81.1406 " fill="none" style="stroke:#181818;stroke-width:0.5;"/><text fill="#000000" font-family="sans-serif" font-size="14" lengthAdjust="spacing" textLength="40" x="5" y="1027.1201">Buyer</text><ellipse cx="28" cy="962.625" fill="#FF0000" rx="8" ry="8" style="stroke:#181818;stroke-width:0.5;"/><path d="M28,970.625 L28,997.625 M15,978.625 L41,978.625 M28,997.625 L15,1012.625 M28,997.625 L41,1012.625 " fill="none" style="stroke:#181818;stroke-width:0.5;"/><rect fill="#E2E2F0" height="30.2969" rx="5" ry="5" style="stroke:#181818;stroke-width:0.5;" width="31" x="246.5" y="954.125"/><text fill="#000000" font-family="sans-serif" font-size="14" lengthAdjust="spacing" textLength="17" x="253.5" y="974.1201">FE</text><rect fill="#E2E2F0" height="30.2969" rx="5" ry="5" style="stroke:#181818;stroke-width:0.5;" width="33" x="583.5" y="954.125"/><text fill="#000000" font-family="sans-serif" font-size="14" lengthAdjust="spacing" textLength="19" x="590.5" y="974.1201">BE</text><rect fill="#E2E2F0" height="30.2969" rx="5" ry="5" style="stroke:#181818;stroke-width:0.5;" width="42" x="803" y="954.125"/><text fill="#000000" font-family="sans-serif" font-size="14" lengthAdjust="spacing" textLength="28" x="810" y="974.1201">TSC</text><rect fill="#E2E2F0" height="30.2969" rx="5" ry="5" style="stroke:#181818;stroke-width:0.5;" width="86" x="1015" y="954.125"/><text fill="#000000" font-family="sans-serif" font-size="14" lengthAdjust="spacing" textLength="72" x="1022" y="974.1201">Prefunded</text><rect fill="#E2E2F0" height="30.2969" rx="5" ry="5" style="stroke:#181818;stroke-width:0.5;" width="45" x="1181" y="954.125"/><text fill="#000000" font-family="sans-serif" font-size="14" lengthAdjust="spacing" textLength="31" x="1188" y="974.1201">Privy</text><rect fill="#E2E2F0" height="30.2969" rx="5" ry="5" style="stroke:#181818;stroke-width:0.5;" width="59" x="1276" y="954.125"/><text fill="#000000" font-family="sans-serif" font-size="14" lengthAdjust="spacing" textLength="45" x="1283" y="974.1201">Bridge</text><rect fill="#E2E2F0" height="30.2969" rx="5" ry="5" style="stroke:#181818;stroke-width:0.5;" width="54" x="1426.5" y="954.125"/><text fill="#000000" font-family="sans-serif" font-size="14" lengthAdjust="spacing" textLength="40" x="1433.5" y="974.1201">Stripe</text><text fill="#000000" font-family="sans-serif" font-size="14" lengthAdjust="spacing" textLength="38" x="1573.5" y="1027.1201">Seller</text><ellipse cx="1595.5" cy="962.625" fill="#0000FF" rx="8" ry="8" style="stroke:#181818;stroke-width:0.5;"/><path d="M1595.5,970.625 L1595.5,997.625 M1582.5,978.625 L1608.5,978.625 M1595.5,997.625 L1582.5,1012.625 M1595.5,997.625 L1608.5,1012.625 " fill="none" style="stroke:#181818;stroke-width:0.5;"/><polygon fill="#181818" points="245,149.0703,255,153.0703,245,157.0703,249,153.0703" style="stroke:#181818;stroke-width:1.0;"/><line style="stroke:#181818;stroke-width:1.0;" x1="28" x2="251" y1="153.0703" y2="153.0703"/><text fill="#800080" font-family="sans-serif" font-size="13" font-weight="bold" lengthAdjust="spacing" textLength="21" x="35" y="148.0044">[1]</text><text fill="#000000" font-family="sans-serif" font-size="13" lengthAdjust="spacing" textLength="180" x="60" y="148.0044">Select "seller" and "amount"</text><polygon fill="#181818" points="245,178.2031,255,182.2031,245,186.2031,249,182.2031" style="stroke:#181818;stroke-width:1.0;"/><line style="stroke:#181818;stroke-width:1.0;" x1="28" x2="251" y1="182.2031" y2="182.2031"/><text fill="#800080" font-family="sans-serif" font-size="13" font-weight="bold" lengthAdjust="spacing" textLength="21" x="35" y="177.1372">[2]</text><text fill="#000000" font-family="sans-serif" font-size="13" lengthAdjust="spacing" textLength="114" x="60" y="177.1372">Request checkout</text><polygon fill="#181818" points="39,207.3359,29,211.3359,39,215.3359,35,211.3359" style="stroke:#181818;stroke-width:1.0;"/><line style="stroke:#181818;stroke-width:1.0;" x1="33" x2="256" y1="211.3359" y2="211.3359"/><text fill="#800080" font-family="sans-serif" font-size="13" font-weight="bold" lengthAdjust="spacing" textLength="21" x="102" y="206.27">[3]</text><text fill="#000000" font-family="sans-serif" font-size="13" lengthAdjust="spacing" textLength="123" x="127" y="206.27">SignIn/SignUp form</text><polygon fill="#181818" points="39,236.4688,29,240.4688,39,244.4688,35,240.4688" style="stroke:#181818;stroke-width:1.0;"/><polygon fill="#181818" points="1191.5,236.4688,1201.5,240.4688,1191.5,244.4688,1195.5,240.4688" style="stroke:#181818;stroke-width:1.0;"/><line style="stroke:#181818;stroke-width:1.0;" x1="33" x2="1197.5" y1="240.4688" y2="240.4688"/><text fill="#800080" font-family="sans-serif" font-size="13" font-weight="bold" lengthAdjust="spacing" textLength="21" x="530.25" y="235.4028">[4]</text><text fill="#000000" font-family="sans-serif" font-size="13" lengthAdjust="spacing" textLength="146" x="555.25" y="235.4028">Login with Email &amp; OTP</text><polygon fill="#181818" points="1191.5,265.6016,1201.5,269.6016,1191.5,273.6016,1195.5,269.6016" style="stroke:#181818;stroke-width:1.0;"/><line style="stroke:#181818;stroke-width:1.0;" x1="267" x2="1197.5" y1="269.6016" y2="269.6016"/><text fill="#800080" font-family="sans-serif" font-size="13" font-weight="bold" lengthAdjust="spacing" textLength="21" x="274" y="264.5356">[5]</text><text fill="#000000" font-family="sans-serif" font-size="13" lengthAdjust="spacing" textLength="218" x="299" y="264.5356">Create/Delegate embedded wallet</text><polygon fill="#181818" points="278,294.7344,268,298.7344,278,302.7344,274,298.7344" style="stroke:#181818;stroke-width:1.0;"/><line style="stroke:#181818;stroke-width:1.0;stroke-dasharray:2.0,2.0;" x1="272" x2="1202.5" y1="298.7344" y2="298.7344"/><text fill="#800080" font-family="sans-serif" font-size="13" font-weight="bold" lengthAdjust="spacing" textLength="21" x="1008.5" y="293.6685">[6]</text><text fill="#000000" font-family="sans-serif" font-size="13" lengthAdjust="spacing" textLength="163" x="1033.5" y="293.6685">Embedded wallet is ready</text><polygon fill="#181818" points="583,323.8672,593,327.8672,583,331.8672,587,327.8672" style="stroke:#181818;stroke-width:1.0;"/><line style="stroke:#181818;stroke-width:1.0;" x1="267" x2="589" y1="327.8672" y2="327.8672"/><text fill="#800080" font-family="sans-serif" font-size="13" font-weight="bold" lengthAdjust="spacing" textLength="21" x="274" y="322.8013">[7]</text><text fill="#000000" font-family="sans-serif" font-size="13" lengthAdjust="spacing" textLength="284" x="299" y="322.8013">Payment intent for the "amount" and "seller"</text><polygon fill="#181818" points="278,353,268,357,278,361,274,357" style="stroke:#181818;stroke-width:1.0;"/><line style="stroke:#181818;stroke-width:1.0;stroke-dasharray:2.0,2.0;" x1="272" x2="594" y1="357" y2="357"/><text fill="#800080" font-family="sans-serif" font-size="13" font-weight="bold" lengthAdjust="spacing" textLength="21" x="454" y="351.9341">[8]</text><text fill="#000000" font-family="sans-serif" font-size="13" lengthAdjust="spacing" textLength="109" x="479" y="351.9341">Payment session</text><polygon fill="#181818" points="39,382.1328,29,386.1328,39,390.1328,35,386.1328" style="stroke:#181818;stroke-width:1.0;"/><line style="stroke:#181818;stroke-width:1.0;" x1="33" x2="256" y1="386.1328" y2="386.1328"/><text fill="#800080" font-family="sans-serif" font-size="13" font-weight="bold" lengthAdjust="spacing" textLength="21" x="134" y="381.0669">[9]</text><text fill="#000000" font-family="sans-serif" font-size="13" lengthAdjust="spacing" textLength="91" x="159" y="381.0669">Payment form</text><polygon fill="#181818" points="245,411.2656,255,415.2656,245,419.2656,249,415.2656" style="stroke:#181818;stroke-width:1.0;"/><line style="stroke:#181818;stroke-width:1.0;" x1="28" x2="251" y1="415.2656" y2="415.2656"/><text fill="#800080" font-family="sans-serif" font-size="13" font-weight="bold" lengthAdjust="spacing" textLength="30" x="35" y="410.1997">[10]</text><text fill="#000000" font-family="sans-serif" font-size="13" lengthAdjust="spacing" textLength="116" x="69" y="410.1997">Payment Info (CC)</text><polygon fill="#181818" points="1436.5,440.3984,1446.5,444.3984,1436.5,448.3984,1440.5,444.3984" style="stroke:#181818;stroke-width:1.0;"/><line style="stroke:#181818;stroke-width:1.0;" x1="267" x2="1442.5" y1="444.3984" y2="444.3984"/><text fill="#800080" font-family="sans-serif" font-size="13" font-weight="bold" lengthAdjust="spacing" textLength="30" x="274" y="439.3325">[11]</text><text fill="#000000" font-family="sans-serif" font-size="13" lengthAdjust="spacing" textLength="116" x="308" y="439.3325">Payment info (CC)</text><polygon fill="#181818" points="278,469.5313,268,473.5313,278,477.5313,274,473.5313" style="stroke:#181818;stroke-width:1.0;"/><line style="stroke:#181818;stroke-width:1.0;" x1="272" x2="1447.5" y1="473.5313" y2="473.5313"/><text fill="#800080" font-family="sans-serif" font-size="13" font-weight="bold" lengthAdjust="spacing" textLength="30" x="1306.5" y="468.4653">[12]</text><text fill="#000000" font-family="sans-serif" font-size="13" lengthAdjust="spacing" textLength="101" x="1340.5" y="468.4653">Payment status</text><polygon fill="#181818" points="611,498.6641,601,502.6641,611,506.6641,607,502.6641" style="stroke:#181818;stroke-width:1.0;"/><line style="stroke:#181818;stroke-width:1.0;stroke-dasharray:2.0,2.0;" x1="605" x2="1447.5" y1="502.6641" y2="502.6641"/><text fill="#800080" font-family="sans-serif" font-size="13" font-weight="bold" lengthAdjust="spacing" textLength="30" x="1224.5" y="497.5981">[13]</text><text fill="#000000" font-family="sans-serif" font-size="13" lengthAdjust="spacing" textLength="183" x="1258.5" y="497.5981">Webhook on Payment status</text><polygon fill="#181818" points="39,527.7969,29,531.7969,39,535.7969,35,531.7969" style="stroke:#181818;stroke-width:1.0;"/><line style="stroke:#181818;stroke-width:1.0;stroke-dasharray:2.0,2.0;" x1="33" x2="256" y1="531.7969" y2="531.7969"/><text fill="#800080" font-family="sans-serif" font-size="13" font-weight="bold" lengthAdjust="spacing" textLength="30" x="115" y="526.731">[14]</text><text fill="#000000" font-family="sans-serif" font-size="13" lengthAdjust="spacing" textLength="101" x="149" y="526.731">Payment status</text><line style="stroke:#181818;stroke-width:1.0;" x1="558" x2="600" y1="560.9297" y2="560.9297"/><line style="stroke:#181818;stroke-width:1.0;" x1="558" x2="558" y1="560.9297" y2="573.9297"/><line style="stroke:#181818;stroke-width:1.0;" x1="558" x2="599" y1="573.9297" y2="573.9297"/><polygon fill="#181818" points="591,569.9297,601,573.9297,591,577.9297,595,573.9297" style="stroke:#181818;stroke-width:1.0;"/><text fill="#800080" font-family="sans-serif" font-size="13" font-weight="bold" lengthAdjust="spacing" textLength="30" x="325" y="555.8638">[15]</text><text fill="#000000" font-family="sans-serif" font-size="13" lengthAdjust="spacing" textLength="241" x="359" y="555.8638">Register payment status details in DB</text><path d="M10.5,616.9297 L10.5,631.9297 A5,5 0 0 0 15.5,636.9297 L1607.5,636.9297 A5,5 0 0 0 1612.5,631.9297 L1612.5,621.9297 L1602.5,611.9297 L15.5,611.9297 A5,5 0 0 0 10.5,616.9297 " fill="#FEFFDD" style="stroke:#181818;stroke-width:0.5;"/><path d="M1602.5,611.9297 L1602.5,619.4297 A2.5,2.5 0 0 0 1605,621.9297 L1612.5,621.9297 L1602.5,611.9297 " fill="#FEFFDD" style="stroke:#181818;stroke-width:0.5;"/><text fill="#000000" font-family="sans-serif" font-size="13" lengthAdjust="spacing" textLength="214" x="700.25" y="628.9966">Assumption: payment succeeded</text><polygon fill="#181818" points="812,684.1953,822,688.1953,812,692.1953,816,688.1953" style="stroke:#181818;stroke-width:1.0;"/><line style="stroke:#181818;stroke-width:1.0;" x1="600" x2="818" y1="688.1953" y2="688.1953"/><text fill="#800080" font-family="sans-serif" font-size="13" font-weight="bold" lengthAdjust="spacing" textLength="30" x="607" y="683.1294">[16]</text><text fill="#000000" font-family="sans-serif" font-size="13" lengthAdjust="spacing" textLength="166" x="641" y="683.1294">pledge(ID, seller, amount)</text><polygon fill="#181818" points="835,713.3281,825,717.3281,835,721.3281,831,717.3281" style="stroke:#181818;stroke-width:1.0;"/><line style="stroke:#181818;stroke-width:1.0;" x1="829" x2="1057" y1="717.3281" y2="717.3281"/><text fill="#800080" font-family="sans-serif" font-size="13" font-weight="bold" lengthAdjust="spacing" textLength="30" x="841" y="712.2622">[17]</text><text fill="#000000" font-family="sans-serif" font-size="13" lengthAdjust="spacing" textLength="176" x="875" y="712.2622">transfer `amount` of USDC</text><polygon fill="#181818" points="812,742.4609,822,746.4609,812,750.4609,816,746.4609" style="stroke:#181818;stroke-width:1.0;"/><line style="stroke:#181818;stroke-width:1.0;" x1="600" x2="818" y1="746.4609" y2="746.4609"/><text fill="#800080" font-family="sans-serif" font-size="13" font-weight="bold" lengthAdjust="spacing" textLength="30" x="607" y="741.395">[18]</text><text fill="#000000" font-family="sans-serif" font-size="13" lengthAdjust="spacing" textLength="129" x="641" y="741.395">confirm(ID, amount)</text><polygon fill="#181818" points="812,771.5938,822,775.5938,812,779.5938,816,775.5938" style="stroke:#181818;stroke-width:1.0;"/><line style="stroke:#181818;stroke-width:1.0;" x1="600" x2="818" y1="775.5938" y2="775.5938"/><text fill="#800080" font-family="sans-serif" font-size="13" font-weight="bold" lengthAdjust="spacing" textLength="30" x="607" y="770.5278">[19]</text><text fill="#000000" font-family="sans-serif" font-size="13" lengthAdjust="spacing" textLength="78" x="641" y="770.5278">withdraw(ID)</text><polygon fill="#181818" points="1293.5,771.5938,1303.5,775.5938,1293.5,779.5938,1297.5,775.5938" style="stroke:#181818;stroke-width:1.0;"/><line style="stroke:#181818;stroke-width:1.0;" x1="824" x2="1299.5" y1="775.5938" y2="775.5938"/><text fill="#800080" font-family="sans-serif" font-size="13" font-weight="bold" lengthAdjust="spacing" textLength="30" x="831" y="770.5278">[20]</text><text fill="#000000" font-family="sans-serif" font-size="13" lengthAdjust="spacing" textLength="253" x="865" y="770.5278">liquidate `amount` of USDC for `seller`</text><polygon fill="#181818" points="1583.5,800.7266,1593.5,804.7266,1583.5,808.7266,1587.5,804.7266" style="stroke:#181818;stroke-width:1.0;"/><line style="stroke:#181818;stroke-width:1.0;" x1="1305.5" x2="1589.5" y1="804.7266" y2="804.7266"/><text fill="#800080" font-family="sans-serif" font-size="13" font-weight="bold" lengthAdjust="spacing" textLength="30" x="1312.5" y="799.6606">[21]</text><text fill="#000000" font-family="sans-serif" font-size="13" lengthAdjust="spacing" textLength="232" x="1346.5" y="799.6606">Off-ramp `amount` to bank account</text><path d="M1008,822.7266 L1008,837.7266 A5,5 0 0 0 1013,842.7266 L1498,842.7266 A5,5 0 0 0 1503,837.7266 L1503,827.7266 L1493,817.7266 L1013,817.7266 A5,5 0 0 0 1008,822.7266 " fill="#FEFFDD" style="stroke:#181818;stroke-width:0.5;"/><path d="M1493,817.7266 L1493,825.2266 A2.5,2.5 0 0 0 1495.5,827.7266 L1503,827.7266 L1493,817.7266 " fill="#FEFFDD" style="stroke:#181818;stroke-width:0.5;"/><text fill="#000000" font-family="sans-serif" font-size="13" lengthAdjust="spacing" textLength="302" x="1100.25" y="834.7935">Re-fund pre-funded account via Payout process</text><line style="stroke:#181818;stroke-width:1.0;" x1="1411.5" x2="1453.5" y1="868.9922" y2="868.9922"/><line style="stroke:#181818;stroke-width:1.0;" x1="1411.5" x2="1411.5" y1="868.9922" y2="881.9922"/><line style="stroke:#181818;stroke-width:1.0;" x1="1411.5" x2="1452.5" y1="881.9922" y2="881.9922"/><polygon fill="#181818" points="1444.5,877.9922,1454.5,881.9922,1444.5,885.9922,1448.5,881.9922" style="stroke:#181818;stroke-width:1.0;"/><text fill="#800080" font-family="sans-serif" font-size="13" font-weight="bold" lengthAdjust="spacing" textLength="30" x="1319.5" y="863.9263">[22]</text><text fill="#000000" font-family="sans-serif" font-size="13" lengthAdjust="spacing" textLength="100" x="1353.5" y="863.9263">Latency, 2 days</text><polygon fill="#181818" points="1316.5,907.125,1306.5,911.125,1316.5,915.125,1312.5,911.125" style="stroke:#181818;stroke-width:1.0;"/><line style="stroke:#181818;stroke-width:1.0;" x1="1310.5" x2="1452.5" y1="911.125" y2="911.125"/><text fill="#800080" font-family="sans-serif" font-size="13" font-weight="bold" lengthAdjust="spacing" textLength="30" x="1329.5" y="906.0591">[23]</text><text fill="#000000" font-family="sans-serif" font-size="13" lengthAdjust="spacing" textLength="83" x="1363.5" y="906.0591">Payout in fiat</text><polygon fill="#181818" points="1069,907.125,1059,911.125,1069,915.125,1065,911.125" style="stroke:#181818;stroke-width:1.0;"/><line style="stroke:#181818;stroke-width:1.0;" x1="1063" x2="1304.5" y1="911.125" y2="911.125"/><text fill="#800080" font-family="sans-serif" font-size="13" font-weight="bold" lengthAdjust="spacing" textLength="30" x="1163.5" y="906.0591">[24]</text><text fill="#000000" font-family="sans-serif" font-size="13" lengthAdjust="spacing" textLength="101" x="1197.5" y="906.0591">Payout in USDC</text><!--SRC=[VLHHQzim47xNhxXvqBKqeLqVJLTe4XSA7GrDonx688frTaHioPNaP1dzyJl9ZcE7iPSulllkz7ttdVofCZmlEJZKVy2P6fdTI5LnmqimkbOYrKQXWQ_NlSIQAx4pqZbKaF72zeiiljUeKloErl8SxmkPAn3IOEgaLZqW_JgPoeehD-T2I9N3JV-GbVvzYDFXQ-I2Q3mKUWSwWuoOMSPhfrLThYWHtMPQEKXreSstgZPLWNUtgxkVrxyYzeNnr6a3atfFoCy61OMeFUjHW8Tay3f962hXIVm3-xgO3jwZkK7F24NqdwgvaTlzy10ZHOw3qC8PMM6lIqDzWKNXkQyASkWB-_ZuOAoHCxuZwh47q8GXiW4O0Ja44I_9GHVv7dBB7NgH08Ew5s-NfS6jCTtesW4GuY7nwO2ZpcJWexhoZxSACctAhiSjeOAg69vqBXNif5j3Kd9Pm1aylywxNYrgQf1eNCs8RExv87adQ6omuqJR4Jm0OTooIuPva1QeWzWVEIQNbp7C-Rv46fvKpZ-88xWrTlgRORIJeLA3hZQggxAqgNurJtGVqWF5BQz3xb5b6iwdqukkkF5lIEg8QRAdNQpZhhQzT10MmmzShRNUW5QdK847Izcfc0OmISYSqEG5SsaTKQy6213eo2PBz60s2GkbD3d2KwEjZU7Ushgi_9MDZvLrcYAI7G4-2NhfAX2WGDhZyyVP29efZw0P_GNhRaO7TeOhcn6XPODP-llyjfXD-nrJhJ9foj3oqAgNzdic3DzH_eAT-LWmBbod60hvNalXz-lqYB0QouRZaZNuu5g8nF2SPMFwzbJ7GgTXnTM6vfBwG3CalINwdR9HwvkVzTY7e3BD7rBTri5MSk-Hls6LqIcj76lT9fyEzK_4MQNx4To0uFiEqPFMjY3JCiaTIJzgwFZqKM6kvDPV]--></g></svg>