<?xml version="1.0" encoding="us-ascii" standalone="no"?><svg xmlns="http://www.w3.org/2000/svg" xmlns:xlink="http://www.w3.org/1999/xlink" contentStyleType="text/css" height="1878px" preserveAspectRatio="none" style="width:1651px;height:1878px;background:#FFFFFF;" version="1.1" viewBox="0 0 1651 1878" width="1651px" zoomAndPan="magnify"><defs/><g><rect fill="#DDDDDD" height="1853.7891" rx="5" ry="5" style="stroke:#181818;stroke-width:0.5;" width="613" x="164.5" y="18.6406"/><text fill="#000000" font-family="sans-serif" font-size="13" font-weight="bold" lengthAdjust="spacing" textLength="64" x="439" y="30.7075">Platform</text><rect fill="#DDDDDD" height="1853.7891" rx="5" ry="5" style="stroke:#181818;stroke-width:0.5;" width="478" x="1160.5" y="18.6406"/><text fill="#000000" font-family="sans-serif" font-size="13" font-weight="bold" lengthAdjust="spacing" textLength="41" x="1379" y="30.7075">Seller</text><text fill="#888888" font-family="sans-serif" font-size="10" lengthAdjust="spacing" textLength="58" x="1585.5" y="14.2822">Refund flow</text><line style="stroke:#181818;stroke-width:0.5;stroke-dasharray:5.0,5.0;" x1="28" x2="28" y1="114.0703" y2="1031.6563"/><line style="stroke:#A80036;stroke-width:1.0;stroke-dasharray:1.0,4.0;" x1="28" x2="28" y1="1031.6563" y2="1072.4609"/><line style="stroke:#181818;stroke-width:0.5;stroke-dasharray:5.0,5.0;" x1="28" x2="28" y1="1072.4609" y2="1685.1953"/><line style="stroke:#A80036;stroke-width:1.0;stroke-dasharray:1.0,4.0;" x1="28" x2="28" y1="1685.1953" y2="1726"/><line style="stroke:#181818;stroke-width:0.5;stroke-dasharray:5.0,5.0;" x1="28" x2="28" y1="1726" y2="1790.1328"/><line style="stroke:#181818;stroke-width:0.5;stroke-dasharray:5.0,5.0;" x1="209" x2="209" y1="114.0703" y2="1031.6563"/><line style="stroke:#A80036;stroke-width:1.0;stroke-dasharray:1.0,4.0;" x1="209" x2="209" y1="1031.6563" y2="1072.4609"/><line style="stroke:#181818;stroke-width:0.5;stroke-dasharray:5.0,5.0;" x1="209" x2="209" y1="1072.4609" y2="1685.1953"/><line style="stroke:#A80036;stroke-width:1.0;stroke-dasharray:1.0,4.0;" x1="209" x2="209" y1="1685.1953" y2="1726"/><line style="stroke:#181818;stroke-width:0.5;stroke-dasharray:5.0,5.0;" x1="209" x2="209" y1="1726" y2="1790.1328"/><line style="stroke:#181818;stroke-width:0.5;stroke-dasharray:5.0,5.0;" x1="337" x2="337" y1="114.0703" y2="1031.6563"/><line style="stroke:#A80036;stroke-width:1.0;stroke-dasharray:1.0,4.0;" x1="337" x2="337" y1="1031.6563" y2="1072.4609"/><line style="stroke:#181818;stroke-width:0.5;stroke-dasharray:5.0,5.0;" x1="337" x2="337" y1="1072.4609" y2="1685.1953"/><line style="stroke:#A80036;stroke-width:1.0;stroke-dasharray:1.0,4.0;" x1="337" x2="337" y1="1685.1953" y2="1726"/><line style="stroke:#181818;stroke-width:0.5;stroke-dasharray:5.0,5.0;" x1="337" x2="337" y1="1726" y2="1790.1328"/><rect fill="#FFFFFF" height="145.6641" style="stroke:#181818;stroke-width:1.0;" width="10" x="332" y="848.8594"/><rect fill="#FFFFFF" height="58.2656" style="stroke:#181818;stroke-width:1.0;" width="10" x="332" y="1308.2578"/><line style="stroke:#181818;stroke-width:0.5;stroke-dasharray:5.0,5.0;" x1="532" x2="532" y1="114.0703" y2="1031.6563"/><line style="stroke:#A80036;stroke-width:1.0;stroke-dasharray:1.0,4.0;" x1="532" x2="532" y1="1031.6563" y2="1072.4609"/><line style="stroke:#181818;stroke-width:0.5;stroke-dasharray:5.0,5.0;" x1="532" x2="532" y1="1072.4609" y2="1685.1953"/><line style="stroke:#A80036;stroke-width:1.0;stroke-dasharray:1.0,4.0;" x1="532" x2="532" y1="1685.1953" y2="1726"/><line style="stroke:#181818;stroke-width:0.5;stroke-dasharray:5.0,5.0;" x1="532" x2="532" y1="1726" y2="1790.1328"/><line style="stroke:#181818;stroke-width:0.5;stroke-dasharray:5.0,5.0;" x1="649.5" x2="649.5" y1="114.0703" y2="1031.6563"/><line style="stroke:#A80036;stroke-width:1.0;stroke-dasharray:1.0,4.0;" x1="649.5" x2="649.5" y1="1031.6563" y2="1072.4609"/><line style="stroke:#181818;stroke-width:0.5;stroke-dasharray:5.0,5.0;" x1="649.5" x2="649.5" y1="1072.4609" y2="1685.1953"/><line style="stroke:#A80036;stroke-width:1.0;stroke-dasharray:1.0,4.0;" x1="649.5" x2="649.5" y1="1685.1953" y2="1726"/><line style="stroke:#181818;stroke-width:0.5;stroke-dasharray:5.0,5.0;" x1="649.5" x2="649.5" y1="1726" y2="1790.1328"/><line style="stroke:#181818;stroke-width:0.5;stroke-dasharray:5.0,5.0;" x1="748" x2="748" y1="114.0703" y2="1031.6563"/><line style="stroke:#A80036;stroke-width:1.0;stroke-dasharray:1.0,4.0;" x1="748" x2="748" y1="1031.6563" y2="1072.4609"/><line style="stroke:#181818;stroke-width:0.5;stroke-dasharray:5.0,5.0;" x1="748" x2="748" y1="1072.4609" y2="1685.1953"/><line style="stroke:#A80036;stroke-width:1.0;stroke-dasharray:1.0,4.0;" x1="748" x2="748" y1="1685.1953" y2="1726"/><line style="stroke:#181818;stroke-width:0.5;stroke-dasharray:5.0,5.0;" x1="748" x2="748" y1="1726" y2="1790.1328"/><line style="stroke:#181818;stroke-width:0.5;stroke-dasharray:5.0,5.0;" x1="931" x2="931" y1="114.0703" y2="1031.6563"/><line style="stroke:#A80036;stroke-width:1.0;stroke-dasharray:1.0,4.0;" x1="931" x2="931" y1="1031.6563" y2="1072.4609"/><line style="stroke:#181818;stroke-width:0.5;stroke-dasharray:5.0,5.0;" x1="931" x2="931" y1="1072.4609" y2="1685.1953"/><line style="stroke:#A80036;stroke-width:1.0;stroke-dasharray:1.0,4.0;" x1="931" x2="931" y1="1685.1953" y2="1726"/><line style="stroke:#181818;stroke-width:0.5;stroke-dasharray:5.0,5.0;" x1="931" x2="931" y1="1726" y2="1790.1328"/><line style="stroke:#181818;stroke-width:0.5;stroke-dasharray:5.0,5.0;" x1="1119" x2="1119" y1="114.0703" y2="1031.6563"/><line style="stroke:#A80036;stroke-width:1.0;stroke-dasharray:1.0,4.0;" x1="1119" x2="1119" y1="1031.6563" y2="1072.4609"/><line style="stroke:#181818;stroke-width:0.5;stroke-dasharray:5.0,5.0;" x1="1119" x2="1119" y1="1072.4609" y2="1685.1953"/><line style="stroke:#A80036;stroke-width:1.0;stroke-dasharray:1.0,4.0;" x1="1119" x2="1119" y1="1685.1953" y2="1726"/><line style="stroke:#181818;stroke-width:0.5;stroke-dasharray:5.0,5.0;" x1="1119" x2="1119" y1="1726" y2="1790.1328"/><line style="stroke:#181818;stroke-width:0.5;stroke-dasharray:5.0,5.0;" x1="1242" x2="1242" y1="114.0703" y2="1031.6563"/><line style="stroke:#A80036;stroke-width:1.0;stroke-dasharray:1.0,4.0;" x1="1242" x2="1242" y1="1031.6563" y2="1072.4609"/><line style="stroke:#181818;stroke-width:0.5;stroke-dasharray:5.0,5.0;" x1="1242" x2="1242" y1="1072.4609" y2="1685.1953"/><line style="stroke:#A80036;stroke-width:1.0;stroke-dasharray:1.0,4.0;" x1="1242" x2="1242" y1="1685.1953" y2="1726"/><line style="stroke:#181818;stroke-width:0.5;stroke-dasharray:5.0,5.0;" x1="1242" x2="1242" y1="1726" y2="1790.1328"/><rect fill="#FFFFFF" height="58.2656" style="stroke:#181818;stroke-width:1.0;" width="10" x="1237" y="877.9922"/><line style="stroke:#181818;stroke-width:0.5;stroke-dasharray:5.0,5.0;" x1="1437" x2="1437" y1="114.0703" y2="1031.6563"/><line style="stroke:#A80036;stroke-width:1.0;stroke-dasharray:1.0,4.0;" x1="1437" x2="1437" y1="1031.6563" y2="1072.4609"/><line style="stroke:#181818;stroke-width:0.5;stroke-dasharray:5.0,5.0;" x1="1437" x2="1437" y1="1072.4609" y2="1685.1953"/><line style="stroke:#A80036;stroke-width:1.0;stroke-dasharray:1.0,4.0;" x1="1437" x2="1437" y1="1685.1953" y2="1726"/><line style="stroke:#181818;stroke-width:0.5;stroke-dasharray:5.0,5.0;" x1="1437" x2="1437" y1="1726" y2="1790.1328"/><line style="stroke:#181818;stroke-width:0.5;stroke-dasharray:5.0,5.0;" x1="1532.5" x2="1532.5" y1="114.0703" y2="1031.6563"/><line style="stroke:#A80036;stroke-width:1.0;stroke-dasharray:1.0,4.0;" x1="1532.5" x2="1532.5" y1="1031.6563" y2="1072.4609"/><line style="stroke:#181818;stroke-width:0.5;stroke-dasharray:5.0,5.0;" x1="1532.5" x2="1532.5" y1="1072.4609" y2="1685.1953"/><line style="stroke:#A80036;stroke-width:1.0;stroke-dasharray:1.0,4.0;" x1="1532.5" x2="1532.5" y1="1685.1953" y2="1726"/><line style="stroke:#181818;stroke-width:0.5;stroke-dasharray:5.0,5.0;" x1="1532.5" x2="1532.5" y1="1726" y2="1790.1328"/><line style="stroke:#181818;stroke-width:0.5;stroke-dasharray:5.0,5.0;" x1="1609" x2="1609" y1="114.0703" y2="1031.6563"/><line style="stroke:#A80036;stroke-width:1.0;stroke-dasharray:1.0,4.0;" x1="1609" x2="1609" y1="1031.6563" y2="1072.4609"/><line style="stroke:#181818;stroke-width:0.5;stroke-dasharray:5.0,5.0;" x1="1609" x2="1609" y1="1072.4609" y2="1685.1953"/><line style="stroke:#A80036;stroke-width:1.0;stroke-dasharray:1.0,4.0;" x1="1609" x2="1609" y1="1685.1953" y2="1726"/><line style="stroke:#181818;stroke-width:0.5;stroke-dasharray:5.0,5.0;" x1="1609" x2="1609" y1="1726" y2="1790.1328"/><text fill="#000000" font-family="sans-serif" font-size="14" lengthAdjust="spacing" textLength="40" x="5" y="110.7686">Buyer</text><ellipse cx="28" cy="46.2734" fill="#FF0000" rx="8" ry="8" style="stroke:#181818;stroke-width:0.5;"/><path d="M28,54.2734 L28,81.2734 M15,62.2734 L41,62.2734 M28,81.2734 L15,96.2734 M28,81.2734 L41,96.2734 " fill="none" style="stroke:#181818;stroke-width:0.5;"/><rect fill="#E2E2F0" height="30.2969" rx="5" ry="5" style="stroke:#181818;stroke-width:0.5;" width="41" x="188.5" y="82.7734"/><text fill="#000000" font-family="sans-serif" font-size="14" lengthAdjust="spacing" textLength="27" x="195.5" y="102.7686">App</text><rect fill="#E2E2F0" height="30.2969" rx="5" ry="5" style="stroke:#181818;stroke-width:0.5;" width="115" x="279.5" y="82.7734"/><text fill="#000000" font-family="sans-serif" font-size="14" lengthAdjust="spacing" textLength="101" x="286.5" y="102.7686">Stripe Account</text><rect fill="#E2E2F0" height="30.2969" rx="5" ry="5" style="stroke:#181818;stroke-width:0.5;" width="49" x="507.5" y="82.7734"/><text fill="#000000" font-family="sans-serif" font-size="14" lengthAdjust="spacing" textLength="35" x="514.5" y="102.7686">Bank</text><rect fill="#E2E2F0" height="30.2969" rx="5" ry="5" style="stroke:#181818;stroke-width:0.5;" width="86" x="606.5" y="82.7734"/><text fill="#000000" font-family="sans-serif" font-size="14" lengthAdjust="spacing" textLength="72" x="613.5" y="102.7686">Prefunded</text><text fill="#000000" font-family="sans-serif" font-size="14" lengthAdjust="spacing" textLength="45" x="722.5" y="110.7686">Owner</text><ellipse cx="748" cy="46.2734" fill="#008000" rx="8" ry="8" style="stroke:#181818;stroke-width:0.5;"/><path d="M748,54.2734 L748,81.2734 M735,62.2734 L761,62.2734 M748,81.2734 L735,96.2734 M748,81.2734 L761,96.2734 " fill="none" style="stroke:#181818;stroke-width:0.5;"/><text fill="#000000" font-family="sans-serif" font-size="14" lengthAdjust="spacing" textLength="40" x="908" y="110.7686">Stripe</text><ellipse cx="931" cy="81.7734" fill="#E2E2F0" rx="12" ry="12" style="stroke:#181818;stroke-width:0.5;"/><polygon fill="#181818" points="927,69.7734,933,64.7734,931,69.7734,933,74.7734,927,69.7734" style="stroke:#181818;stroke-width:1.0;"/><text fill="#000000" font-family="sans-serif" font-size="14" lengthAdjust="spacing" textLength="45" x="1093.5" y="110.7686">Bridge</text><ellipse cx="1119" cy="81.7734" fill="#E2E2F0" rx="12" ry="12" style="stroke:#181818;stroke-width:0.5;"/><polygon fill="#181818" points="1115,69.7734,1121,64.7734,1119,69.7734,1121,74.7734,1115,69.7734" style="stroke:#181818;stroke-width:1.0;"/><rect fill="#E2E2F0" height="30.2969" rx="5" ry="5" style="stroke:#181818;stroke-width:0.5;" width="115" x="1184.5" y="82.7734"/><text fill="#000000" font-family="sans-serif" font-size="14" lengthAdjust="spacing" textLength="101" x="1191.5" y="102.7686">Stripe Account</text><rect fill="#E2E2F0" height="30.2969" rx="5" ry="5" style="stroke:#181818;stroke-width:0.5;" width="49" x="1412.5" y="82.7734"/><text fill="#000000" font-family="sans-serif" font-size="14" lengthAdjust="spacing" textLength="35" x="1419.5" y="102.7686">Bank</text><rect fill="#E2E2F0" height="30.2969" rx="5" ry="5" style="stroke:#181818;stroke-width:0.5;" width="42" x="1511.5" y="82.7734"/><text fill="#000000" font-family="sans-serif" font-size="14" lengthAdjust="spacing" textLength="28" x="1518.5" y="102.7686">TSC</text><text fill="#000000" font-family="sans-serif" font-size="14" lengthAdjust="spacing" textLength="45" x="1583.5" y="110.7686">Owner</text><ellipse cx="1609" cy="46.2734" fill="#0000FF" rx="8" ry="8" style="stroke:#181818;stroke-width:0.5;"/><path d="M1609,54.2734 L1609,81.2734 M1596,62.2734 L1622,62.2734 M1609,81.2734 L1596,96.2734 M1609,81.2734 L1622,96.2734 " fill="none" style="stroke:#181818;stroke-width:0.5;"/><text fill="#000000" font-family="sans-serif" font-size="14" lengthAdjust="spacing" textLength="40" x="5" y="1863.1279">Buyer</text><ellipse cx="28" cy="1798.6328" fill="#FF0000" rx="8" ry="8" style="stroke:#181818;stroke-width:0.5;"/><path d="M28,1806.6328 L28,1833.6328 M15,1814.6328 L41,1814.6328 M28,1833.6328 L15,1848.6328 M28,1833.6328 L41,1848.6328 " fill="none" style="stroke:#181818;stroke-width:0.5;"/><rect fill="#E2E2F0" height="30.2969" rx="5" ry="5" style="stroke:#181818;stroke-width:0.5;" width="41" x="188.5" y="1790.1328"/><text fill="#000000" font-family="sans-serif" font-size="14" lengthAdjust="spacing" textLength="27" x="195.5" y="1810.1279">App</text><rect fill="#E2E2F0" height="30.2969" rx="5" ry="5" style="stroke:#181818;stroke-width:0.5;" width="115" x="279.5" y="1790.1328"/><text fill="#000000" font-family="sans-serif" font-size="14" lengthAdjust="spacing" textLength="101" x="286.5" y="1810.1279">Stripe Account</text><rect fill="#E2E2F0" height="30.2969" rx="5" ry="5" style="stroke:#181818;stroke-width:0.5;" width="49" x="507.5" y="1790.1328"/><text fill="#000000" font-family="sans-serif" font-size="14" lengthAdjust="spacing" textLength="35" x="514.5" y="1810.1279">Bank</text><rect fill="#E2E2F0" height="30.2969" rx="5" ry="5" style="stroke:#181818;stroke-width:0.5;" width="86" x="606.5" y="1790.1328"/><text fill="#000000" font-family="sans-serif" font-size="14" lengthAdjust="spacing" textLength="72" x="613.5" y="1810.1279">Prefunded</text><text fill="#000000" font-family="sans-serif" font-size="14" lengthAdjust="spacing" textLength="45" x="722.5" y="1863.1279">Owner</text><ellipse cx="748" cy="1798.6328" fill="#008000" rx="8" ry="8" style="stroke:#181818;stroke-width:0.5;"/><path d="M748,1806.6328 L748,1833.6328 M735,1814.6328 L761,1814.6328 M748,1833.6328 L735,1848.6328 M748,1833.6328 L761,1848.6328 " fill="none" style="stroke:#181818;stroke-width:0.5;"/><text fill="#000000" font-family="sans-serif" font-size="14" lengthAdjust="spacing" textLength="40" x="908" y="1835.1279">Stripe</text><ellipse cx="931" cy="1806.1328" fill="#E2E2F0" rx="12" ry="12" style="stroke:#181818;stroke-width:0.5;"/><polygon fill="#181818" points="927,1794.1328,933,1789.1328,931,1794.1328,933,1799.1328,927,1794.1328" style="stroke:#181818;stroke-width:1.0;"/><text fill="#000000" font-family="sans-serif" font-size="14" lengthAdjust="spacing" textLength="45" x="1093.5" y="1835.1279">Bridge</text><ellipse cx="1119" cy="1806.1328" fill="#E2E2F0" rx="12" ry="12" style="stroke:#181818;stroke-width:0.5;"/><polygon fill="#181818" points="1115,1794.1328,1121,1789.1328,1119,1794.1328,1121,1799.1328,1115,1794.1328" style="stroke:#181818;stroke-width:1.0;"/><rect fill="#E2E2F0" height="30.2969" rx="5" ry="5" style="stroke:#181818;stroke-width:0.5;" width="115" x="1184.5" y="1790.1328"/><text fill="#000000" font-family="sans-serif" font-size="14" lengthAdjust="spacing" textLength="101" x="1191.5" y="1810.1279">Stripe Account</text><rect fill="#E2E2F0" height="30.2969" rx="5" ry="5" style="stroke:#181818;stroke-width:0.5;" width="49" x="1412.5" y="1790.1328"/><text fill="#000000" font-family="sans-serif" font-size="14" lengthAdjust="spacing" textLength="35" x="1419.5" y="1810.1279">Bank</text><rect fill="#E2E2F0" height="30.2969" rx="5" ry="5" style="stroke:#181818;stroke-width:0.5;" width="42" x="1511.5" y="1790.1328"/><text fill="#000000" font-family="sans-serif" font-size="14" lengthAdjust="spacing" textLength="28" x="1518.5" y="1810.1279">TSC</text><text fill="#000000" font-family="sans-serif" font-size="14" lengthAdjust="spacing" textLength="45" x="1583.5" y="1863.1279">Owner</text><ellipse cx="1609" cy="1798.6328" fill="#0000FF" rx="8" ry="8" style="stroke:#181818;stroke-width:0.5;"/><path d="M1609,1806.6328 L1609,1833.6328 M1596,1814.6328 L1622,1814.6328 M1609,1833.6328 L1596,1848.6328 M1609,1833.6328 L1622,1848.6328 " fill="none" style="stroke:#181818;stroke-width:0.5;"/><path d="M8.75,157.0703 L8.75,172.0703 A5,5 0 0 0 13.75,177.0703 L1622.75,177.0703 A5,5 0 0 0 1627.75,172.0703 L1627.75,162.0703 L1617.75,152.0703 L13.75,152.0703 A5,5 0 0 0 8.75,157.0703 " fill="#FEFFDD" style="stroke:#181818;stroke-width:0.5;"/><path d="M1617.75,152.0703 L1617.75,159.5703 A2.5,2.5 0 0 0 1620.25,162.0703 L1627.75,162.0703 L1617.75,152.0703 " fill="#FEFFDD" style="stroke:#181818;stroke-width:0.5;"/><text fill="#000000" font-family="sans-serif" font-size="13" lengthAdjust="spacing" textLength="89" x="769.5" y="169.1372">Common part</text><polygon fill="#181818" points="39,224.3359,29,228.3359,39,232.3359,35,228.3359" style="stroke:#181818;stroke-width:1.0;"/><polygon fill="#181818" points="197,224.3359,207,228.3359,197,232.3359,201,228.3359" style="stroke:#181818;stroke-width:1.0;"/><line style="stroke:#181818;stroke-width:1.0;" x1="33" x2="203" y1="228.3359" y2="228.3359"/><text fill="#800080" font-family="sans-serif" font-size="13" font-weight="bold" lengthAdjust="spacing" textLength="21" x="47" y="223.27">[1]</text><text fill="#000000" font-family="sans-serif" font-size="13" lengthAdjust="spacing" textLength="118" x="72" y="223.27">Selection of goods</text><polygon fill="#181818" points="220,224.3359,210,228.3359,220,232.3359,216,228.3359" style="stroke:#181818;stroke-width:1.0;"/><polygon fill="#181818" points="919,224.3359,929,228.3359,919,232.3359,923,228.3359" style="stroke:#181818;stroke-width:1.0;"/><line style="stroke:#181818;stroke-width:1.0;" x1="214" x2="925" y1="228.3359" y2="228.3359"/><text fill="#800080" font-family="sans-serif" font-size="13" font-weight="bold" lengthAdjust="spacing" textLength="21" x="508.5" y="223.27">[2]</text><text fill="#000000" font-family="sans-serif" font-size="13" lengthAdjust="spacing" textLength="98" x="533.5" y="223.27">Calculate taxes</text><polygon fill="#181818" points="197,253.4688,207,257.4688,197,261.4688,201,257.4688" style="stroke:#181818;stroke-width:1.0;"/><line style="stroke:#181818;stroke-width:1.0;" x1="28" x2="203" y1="257.4688" y2="257.4688"/><text fill="#800080" font-family="sans-serif" font-size="13" font-weight="bold" lengthAdjust="spacing" textLength="21" x="35" y="252.4028">[3]</text><text fill="#000000" font-family="sans-serif" font-size="13" lengthAdjust="spacing" textLength="132" x="60" y="252.4028">Request to purchase</text><polygon fill="#181818" points="919,253.4688,929,257.4688,919,261.4688,923,257.4688" style="stroke:#181818;stroke-width:1.0;"/><line style="stroke:#181818;stroke-width:1.0;" x1="209" x2="925" y1="257.4688" y2="257.4688"/><text fill="#800080" font-family="sans-serif" font-size="13" font-weight="bold" lengthAdjust="spacing" textLength="21" x="216" y="252.4028">[4]</text><text fill="#000000" font-family="sans-serif" font-size="13" lengthAdjust="spacing" textLength="129" x="241" y="252.4028">request to purchase</text><polygon fill="#181818" points="39,282.6016,29,286.6016,39,290.6016,35,286.6016" style="stroke:#181818;stroke-width:1.0;"/><line style="stroke:#181818;stroke-width:1.0;" x1="33" x2="930" y1="286.6016" y2="286.6016"/><text fill="#800080" font-family="sans-serif" font-size="13" font-weight="bold" lengthAdjust="spacing" textLength="21" x="808" y="281.5356">[5]</text><text fill="#000000" font-family="sans-serif" font-size="13" lengthAdjust="spacing" textLength="91" x="833" y="281.5356">Payment form</text><polygon fill="#181818" points="919,311.7344,929,315.7344,919,319.7344,923,315.7344" style="stroke:#181818;stroke-width:1.0;"/><line style="stroke:#181818;stroke-width:1.0;" x1="28" x2="925" y1="315.7344" y2="315.7344"/><text fill="#800080" font-family="sans-serif" font-size="13" font-weight="bold" lengthAdjust="spacing" textLength="21" x="35" y="310.6685">[6]</text><text fill="#000000" font-family="sans-serif" font-size="13" lengthAdjust="spacing" textLength="45" x="60" y="310.6685">CC info</text><line style="stroke:#181818;stroke-width:1.0;" x1="931" x2="973" y1="344.8672" y2="344.8672"/><line style="stroke:#181818;stroke-width:1.0;" x1="973" x2="973" y1="344.8672" y2="357.8672"/><line style="stroke:#181818;stroke-width:1.0;" x1="932" x2="973" y1="357.8672" y2="357.8672"/><polygon fill="#181818" points="942,353.8672,932,357.8672,942,361.8672,938,357.8672" style="stroke:#181818;stroke-width:1.0;"/><text fill="#800080" font-family="sans-serif" font-size="13" font-weight="bold" lengthAdjust="spacing" textLength="21" x="938" y="339.8013">[7]</text><text fill="#000000" font-family="sans-serif" font-size="13" lengthAdjust="spacing" textLength="112" x="963" y="339.8013">Charge Stripe fee</text><line style="stroke:#181818;stroke-width:1.0;" x1="889" x2="931" y1="387" y2="387"/><line style="stroke:#181818;stroke-width:1.0;" x1="889" x2="889" y1="387" y2="400"/><line style="stroke:#181818;stroke-width:1.0;" x1="889" x2="930" y1="400" y2="400"/><polygon fill="#181818" points="922,396,932,400,922,404,926,400" style="stroke:#181818;stroke-width:1.0;"/><text fill="#800080" font-family="sans-serif" font-size="13" font-weight="bold" lengthAdjust="spacing" textLength="21" x="762" y="381.9341">[8]</text><text fill="#000000" font-family="sans-serif" font-size="13" lengthAdjust="spacing" textLength="144" x="787" y="381.9341">Record tax transaction</text><polygon fill="#181818" points="348,425.1328,338,429.1328,348,433.1328,344,429.1328" style="stroke:#181818;stroke-width:1.0;"/><line style="stroke:#181818;stroke-width:1.0;" x1="342" x2="930" y1="429.1328" y2="429.1328"/><text fill="#800080" font-family="sans-serif" font-size="13" font-weight="bold" lengthAdjust="spacing" textLength="21" x="801" y="424.0669">[9]</text><text fill="#000000" font-family="sans-serif" font-size="13" lengthAdjust="spacing" textLength="98" x="826" y="424.0669">Collected taxes</text><polygon fill="#181818" points="1230,469.3984,1240,473.3984,1230,477.3984,1234,473.3984" style="stroke:#181818;stroke-width:1.0;"/><line style="stroke:#181818;stroke-width:1.0;" x1="931" x2="1236" y1="473.3984" y2="473.3984"/><text fill="#800080" font-family="sans-serif" font-size="13" font-weight="bold" lengthAdjust="spacing" textLength="30" x="938" y="460.7661">[10]</text><text fill="#000000" font-family="sans-serif" font-size="13" lengthAdjust="spacing" textLength="121" x="972" y="453.1997">Remaining amount</text><text fill="#000000" font-family="sans-serif" font-size="13" lengthAdjust="spacing" textLength="158" x="972" y="468.3325">less Stripe fee and taxes</text><polygon fill="#181818" points="660.5,498.5313,650.5,502.5313,660.5,506.5313,656.5,502.5313" style="stroke:#181818;stroke-width:1.0;"/><line style="stroke:#181818;stroke-width:1.0;" x1="654.5" x2="1241" y1="502.5313" y2="502.5313"/><text fill="#800080" font-family="sans-serif" font-size="13" font-weight="bold" lengthAdjust="spacing" textLength="30" x="1122" y="497.4653">[11]</text><text fill="#000000" font-family="sans-serif" font-size="13" lengthAdjust="spacing" textLength="79" x="1156" y="497.4653">Daily payout</text><polygon fill="#181818" points="1107,527.6641,1117,531.6641,1107,535.6641,1111,531.6641" style="stroke:#181818;stroke-width:1.0;"/><line style="stroke:#181818;stroke-width:1.0;" x1="649.5" x2="1113" y1="531.6641" y2="531.6641"/><text fill="#800080" font-family="sans-serif" font-size="13" font-weight="bold" lengthAdjust="spacing" textLength="30" x="656.5" y="526.5981">[12]</text><text fill="#000000" font-family="sans-serif" font-size="13" lengthAdjust="spacing" textLength="169" x="690.5" y="526.5981">Matching amount in USDC</text><polygon fill="#181818" points="1520.5,556.7969,1530.5,560.7969,1520.5,564.7969,1524.5,560.7969" style="stroke:#181818;stroke-width:1.0;"/><line style="stroke:#181818;stroke-width:1.0;" x1="1119" x2="1526.5" y1="560.7969" y2="560.7969"/><text fill="#800080" font-family="sans-serif" font-size="13" font-weight="bold" lengthAdjust="spacing" textLength="30" x="1126" y="555.731">[13]</text><text fill="#000000" font-family="sans-serif" font-size="13" lengthAdjust="spacing" textLength="169" x="1160" y="555.731">Matching amount in USDC</text><polygon fill="#181818" points="1130,601.0625,1120,605.0625,1130,609.0625,1126,605.0625" style="stroke:#181818;stroke-width:1.0;"/><line style="stroke:#181818;stroke-width:1.0;" x1="1124" x2="1531.5" y1="605.0625" y2="605.0625"/><text fill="#800080" font-family="sans-serif" font-size="13" font-weight="bold" lengthAdjust="spacing" textLength="30" x="1318.5" y="592.4302">[14]</text><text fill="#000000" font-family="sans-serif" font-size="13" lengthAdjust="spacing" textLength="169" x="1352.5" y="584.8638">Matching amount in USDC</text><text fill="#000000" font-family="sans-serif" font-size="13" lengthAdjust="spacing" textLength="105" x="1352.5" y="599.9966">less protocol fee</text><polygon fill="#181818" points="1425,630.1953,1435,634.1953,1425,638.1953,1429,634.1953" style="stroke:#181818;stroke-width:1.0;"/><line style="stroke:#181818;stroke-width:1.0;" x1="1119" x2="1431" y1="634.1953" y2="634.1953"/><text fill="#800080" font-family="sans-serif" font-size="13" font-weight="bold" lengthAdjust="spacing" textLength="30" x="1126" y="629.1294">[15]</text><text fill="#000000" font-family="sans-serif" font-size="13" lengthAdjust="spacing" textLength="87" x="1160" y="629.1294">Fiat for goods</text><path d="M8.75,677.1953 L8.75,692.1953 A5,5 0 0 0 13.75,697.1953 L1622.75,697.1953 A5,5 0 0 0 1627.75,692.1953 L1627.75,682.1953 L1617.75,672.1953 L13.75,672.1953 A5,5 0 0 0 8.75,677.1953 " fill="#FEFFDD" style="stroke:#181818;stroke-width:0.5;"/><path d="M1617.75,672.1953 L1617.75,679.6953 A2.5,2.5 0 0 0 1620.25,682.1953 L1627.75,682.1953 L1617.75,672.1953 " fill="#FEFFDD" style="stroke:#181818;stroke-width:0.5;"/><text fill="#000000" font-family="sans-serif" font-size="13" lengthAdjust="spacing" textLength="319" x="654.5" y="689.2622">Standard flow for refunds (no protocol integration)</text><polygon fill="#181818" points="197,744.4609,207,748.4609,197,752.4609,201,748.4609" style="stroke:#181818;stroke-width:1.0;"/><line style="stroke:#181818;stroke-width:1.0;" x1="28" x2="203" y1="748.4609" y2="748.4609"/><text fill="#800080" font-family="sans-serif" font-size="13" font-weight="bold" lengthAdjust="spacing" textLength="30" x="35" y="743.395">[16]</text><text fill="#000000" font-family="sans-serif" font-size="13" lengthAdjust="spacing" textLength="96" x="69" y="743.395">I need a refund</text><polygon fill="#181818" points="919,773.5938,929,777.5938,919,781.5938,923,777.5938" style="stroke:#181818;stroke-width:1.0;"/><line style="stroke:#181818;stroke-width:1.0;" x1="209" x2="925" y1="777.5938" y2="777.5938"/><text fill="#800080" font-family="sans-serif" font-size="13" font-weight="bold" lengthAdjust="spacing" textLength="30" x="216" y="772.5278">[17]</text><text fill="#000000" font-family="sans-serif" font-size="13" lengthAdjust="spacing" textLength="113" x="250" y="772.5278">Refund requested</text><line style="stroke:#181818;stroke-width:1.0;" x1="931" x2="973" y1="806.7266" y2="806.7266"/><line style="stroke:#181818;stroke-width:1.0;" x1="973" x2="973" y1="806.7266" y2="819.7266"/><line style="stroke:#181818;stroke-width:1.0;" x1="932" x2="973" y1="819.7266" y2="819.7266"/><polygon fill="#181818" points="942,815.7266,932,819.7266,942,823.7266,938,819.7266" style="stroke:#181818;stroke-width:1.0;"/><text fill="#800080" font-family="sans-serif" font-size="13" font-weight="bold" lengthAdjust="spacing" textLength="30" x="938" y="801.6606">[18]</text><text fill="#000000" font-family="sans-serif" font-size="13" lengthAdjust="spacing" textLength="140" x="972" y="801.6606">Adjust tax transaction</text><polygon fill="#181818" points="353,844.8594,343,848.8594,353,852.8594,349,848.8594" style="stroke:#181818;stroke-width:1.0;"/><line style="stroke:#181818;stroke-width:1.0;" x1="347" x2="930" y1="848.8594" y2="848.8594"/><text fill="#800080" font-family="sans-serif" font-size="13" font-weight="bold" lengthAdjust="spacing" textLength="30" x="664" y="843.7935">[19]</text><text fill="#000000" font-family="sans-serif" font-size="13" lengthAdjust="spacing" textLength="226" x="698" y="843.7935">Charge for refund: goods and taxes</text><polygon fill="#181818" points="1225,873.9922,1235,877.9922,1225,881.9922,1229,877.9922" style="stroke:#181818;stroke-width:1.0;"/><line style="stroke:#181818;stroke-width:1.0;" x1="342" x2="1231" y1="877.9922" y2="877.9922"/><text fill="#800080" font-family="sans-serif" font-size="13" font-weight="bold" lengthAdjust="spacing" textLength="30" x="349" y="872.9263">[20]</text><text fill="#000000" font-family="sans-serif" font-size="13" lengthAdjust="spacing" textLength="155" x="383" y="872.9263">Charge refund for goods</text><polygon fill="#181818" points="1258,903.125,1248,907.125,1258,911.125,1254,907.125" style="stroke:#181818;stroke-width:1.0;"/><polygon fill="#181818" points="1425,903.125,1435,907.125,1425,911.125,1429,907.125" style="stroke:#181818;stroke-width:1.0;"/><line style="stroke:#181818;stroke-width:1.0;" x1="1252" x2="1431" y1="907.125" y2="907.125"/><text fill="#800080" font-family="sans-serif" font-size="13" font-weight="bold" lengthAdjust="spacing" textLength="30" x="1256.5" y="902.0591">[21]</text><text fill="#000000" font-family="sans-serif" font-size="13" lengthAdjust="spacing" textLength="137" x="1290.5" y="902.0591">Debit if balance is low</text><polygon fill="#181818" points="942,932.2578,932,936.2578,942,940.2578,938,936.2578" style="stroke:#181818;stroke-width:1.0;"/><line style="stroke:#181818;stroke-width:1.0;" x1="936" x2="1236" y1="936.2578" y2="936.2578"/><text fill="#800080" font-family="sans-serif" font-size="13" font-weight="bold" lengthAdjust="spacing" textLength="30" x="1088" y="931.1919">[22]</text><text fill="#000000" font-family="sans-serif" font-size="13" lengthAdjust="spacing" textLength="108" x="1122" y="931.1919">Refund for goods</text><polygon fill="#181818" points="353,961.3906,343,965.3906,353,969.3906,349,965.3906" style="stroke:#181818;stroke-width:1.0;"/><polygon fill="#181818" points="520,961.3906,530,965.3906,520,969.3906,524,965.3906" style="stroke:#181818;stroke-width:1.0;"/><line style="stroke:#181818;stroke-width:1.0;" x1="347" x2="526" y1="965.3906" y2="965.3906"/><text fill="#800080" font-family="sans-serif" font-size="13" font-weight="bold" lengthAdjust="spacing" textLength="30" x="351.5" y="960.3247">[23]</text><text fill="#000000" font-family="sans-serif" font-size="13" lengthAdjust="spacing" textLength="137" x="385.5" y="960.3247">Debit if balance is low</text><polygon fill="#181818" points="919,990.5234,929,994.5234,919,998.5234,923,994.5234" style="stroke:#181818;stroke-width:1.0;"/><line style="stroke:#181818;stroke-width:1.0;" x1="342" x2="925" y1="994.5234" y2="994.5234"/><text fill="#800080" font-family="sans-serif" font-size="13" font-weight="bold" lengthAdjust="spacing" textLength="30" x="349" y="989.4575">[24]</text><text fill="#000000" font-family="sans-serif" font-size="13" lengthAdjust="spacing" textLength="104" x="383" y="989.4575">Refund for taxes</text><polygon fill="#181818" points="39,1019.6563,29,1023.6563,39,1027.6563,35,1023.6563" style="stroke:#181818;stroke-width:1.0;"/><line style="stroke:#181818;stroke-width:1.0;" x1="33" x2="930" y1="1023.6563" y2="1023.6563"/><text fill="#800080" font-family="sans-serif" font-size="13" font-weight="bold" lengthAdjust="spacing" textLength="30" x="807" y="1018.5903">[25]</text><text fill="#000000" font-family="sans-serif" font-size="13" lengthAdjust="spacing" textLength="83" x="841" y="1018.5903">Refund to CC</text><text fill="#000000" font-family="sans-serif" font-size="11" lengthAdjust="spacing" textLength="106" x="765.5" y="1055.8667">Tax season to end</text><polygon fill="#181818" points="759,1089.5938,749,1093.5938,759,1097.5938,755,1093.5938" style="stroke:#181818;stroke-width:1.0;"/><line style="stroke:#181818;stroke-width:1.0;" x1="753" x2="930" y1="1093.5938" y2="1093.5938"/><text fill="#800080" font-family="sans-serif" font-size="13" font-weight="bold" lengthAdjust="spacing" textLength="30" x="827" y="1088.5278">[26]</text><text fill="#000000" font-family="sans-serif" font-size="13" lengthAdjust="spacing" textLength="63" x="861" y="1088.5278">Tax forms</text><path d="M8.75,1136.5938 L8.75,1151.5938 A5,5 0 0 0 13.75,1156.5938 L1622.75,1156.5938 A5,5 0 0 0 1627.75,1151.5938 L1627.75,1141.5938 L1617.75,1131.5938 L13.75,1131.5938 A5,5 0 0 0 8.75,1136.5938 " fill="#FEFFDD" style="stroke:#181818;stroke-width:0.5;"/><path d="M1617.75,1131.5938 L1617.75,1139.0938 A2.5,2.5 0 0 0 1620.25,1141.5938 L1627.75,1141.5938 L1617.75,1131.5938 " fill="#FEFFDD" style="stroke:#181818;stroke-width:0.5;"/><text fill="#000000" font-family="sans-serif" font-size="13" lengthAdjust="spacing" textLength="481" x="573.5" y="1148.6606">Alternative: Refunds covered by platform and compensated by Seller offline</text><polygon fill="#181818" points="197,1203.8594,207,1207.8594,197,1211.8594,201,1207.8594" style="stroke:#181818;stroke-width:1.0;"/><line style="stroke:#181818;stroke-width:1.0;" x1="28" x2="203" y1="1207.8594" y2="1207.8594"/><text fill="#800080" font-family="sans-serif" font-size="13" font-weight="bold" lengthAdjust="spacing" textLength="30" x="35" y="1202.7935">[27]</text><text fill="#000000" font-family="sans-serif" font-size="13" lengthAdjust="spacing" textLength="96" x="69" y="1202.7935">I need a refund</text><polygon fill="#181818" points="919,1232.9922,929,1236.9922,919,1240.9922,923,1236.9922" style="stroke:#181818;stroke-width:1.0;"/><line style="stroke:#181818;stroke-width:1.0;" x1="209" x2="925" y1="1236.9922" y2="1236.9922"/><text fill="#800080" font-family="sans-serif" font-size="13" font-weight="bold" lengthAdjust="spacing" textLength="30" x="216" y="1231.9263">[28]</text><text fill="#000000" font-family="sans-serif" font-size="13" lengthAdjust="spacing" textLength="113" x="250" y="1231.9263">Refund requested</text><line style="stroke:#181818;stroke-width:1.0;" x1="931" x2="973" y1="1266.125" y2="1266.125"/><line style="stroke:#181818;stroke-width:1.0;" x1="973" x2="973" y1="1266.125" y2="1279.125"/><line style="stroke:#181818;stroke-width:1.0;" x1="932" x2="973" y1="1279.125" y2="1279.125"/><polygon fill="#181818" points="942,1275.125,932,1279.125,942,1283.125,938,1279.125" style="stroke:#181818;stroke-width:1.0;"/><text fill="#800080" font-family="sans-serif" font-size="13" font-weight="bold" lengthAdjust="spacing" textLength="30" x="938" y="1261.0591">[29]</text><text fill="#000000" font-family="sans-serif" font-size="13" lengthAdjust="spacing" textLength="140" x="972" y="1261.0591">Adjust tax transaction</text><polygon fill="#181818" points="353,1304.2578,343,1308.2578,353,1312.2578,349,1308.2578" style="stroke:#181818;stroke-width:1.0;"/><line style="stroke:#181818;stroke-width:1.0;" x1="347" x2="930" y1="1308.2578" y2="1308.2578"/><text fill="#800080" font-family="sans-serif" font-size="13" font-weight="bold" lengthAdjust="spacing" textLength="30" x="664" y="1303.1919">[30]</text><text fill="#000000" font-family="sans-serif" font-size="13" lengthAdjust="spacing" textLength="226" x="698" y="1303.1919">Charge for refund: goods and taxes</text><polygon fill="#181818" points="353,1333.3906,343,1337.3906,353,1341.3906,349,1337.3906" style="stroke:#181818;stroke-width:1.0;"/><polygon fill="#181818" points="520,1333.3906,530,1337.3906,520,1341.3906,524,1337.3906" style="stroke:#181818;stroke-width:1.0;"/><line style="stroke:#181818;stroke-width:1.0;" x1="347" x2="526" y1="1337.3906" y2="1337.3906"/><text fill="#800080" font-family="sans-serif" font-size="13" font-weight="bold" lengthAdjust="spacing" textLength="30" x="351.5" y="1332.3247">[31]</text><text fill="#000000" font-family="sans-serif" font-size="13" lengthAdjust="spacing" textLength="137" x="385.5" y="1332.3247">Debit if balance is low</text><polygon fill="#181818" points="919,1362.5234,929,1366.5234,919,1370.5234,923,1366.5234" style="stroke:#181818;stroke-width:1.0;"/><line style="stroke:#181818;stroke-width:1.0;" x1="342" x2="925" y1="1366.5234" y2="1366.5234"/><text fill="#800080" font-family="sans-serif" font-size="13" font-weight="bold" lengthAdjust="spacing" textLength="30" x="349" y="1361.4575">[32]</text><text fill="#000000" font-family="sans-serif" font-size="13" lengthAdjust="spacing" textLength="175" x="383" y="1361.4575">Refund for taxes and goods</text><polygon fill="#181818" points="39,1391.6563,29,1395.6563,39,1399.6563,35,1395.6563" style="stroke:#181818;stroke-width:1.0;"/><line style="stroke:#181818;stroke-width:1.0;" x1="33" x2="930" y1="1395.6563" y2="1395.6563"/><text fill="#800080" font-family="sans-serif" font-size="13" font-weight="bold" lengthAdjust="spacing" textLength="30" x="807" y="1390.5903">[33]</text><text fill="#000000" font-family="sans-serif" font-size="13" lengthAdjust="spacing" textLength="83" x="841" y="1390.5903">Refund to CC</text><path d="M198,1407.6563 L257,1407.6563 L257,1414.7891 L247,1424.7891 L193,1424.7891 L193,1412.6563 A5,5 0 0 1 198,1407.6563 " fill="#EEEEEE" style="stroke:#000000;stroke-width:1.5;"/><rect fill="none" height="263.5391" rx="5" ry="5" style="stroke:#000000;stroke-width:1.5;" width="1432" x="193" y="1407.6563"/><text fill="#000000" font-family="sans-serif" font-size="13" font-weight="bold" lengthAdjust="spacing" textLength="19" x="208" y="1420.7231">alt</text><text fill="#000000" font-family="sans-serif" font-size="11" font-weight="bold" lengthAdjust="spacing" textLength="111" x="272" y="1419.8667">[Manual process]</text><line style="stroke:#000000;stroke-width:1.0;stroke-dasharray:2.0,2.0;" x1="193" x2="1625" y1="1504.0547" y2="1504.0547"/><text fill="#000000" font-family="sans-serif" font-size="11" font-weight="bold" lengthAdjust="spacing" textLength="204" x="198" y="1516.2651">[Automated process "Option 1"]</text><line style="stroke:#000000;stroke-width:1.0;stroke-dasharray:2.0,2.0;" x1="193" x2="1625" y1="1593.125" y2="1593.125"/><text fill="#000000" font-family="sans-serif" font-size="11" font-weight="bold" lengthAdjust="spacing" textLength="204" x="198" y="1605.3354">[Automated process "Option 2"]</text><polygon fill="#181818" points="1597,1451.9219,1607,1455.9219,1597,1459.9219,1601,1455.9219" style="stroke:#181818;stroke-width:1.0;"/><line style="stroke:#181818;stroke-width:1.0;" x1="748" x2="1603" y1="1455.9219" y2="1455.9219"/><text fill="#800080" font-family="sans-serif" font-size="13" font-weight="bold" lengthAdjust="spacing" textLength="30" x="755" y="1450.856">[34]</text><text fill="#000000" font-family="sans-serif" font-size="13" lengthAdjust="spacing" textLength="227" x="789" y="1450.856">Request to cover "refund for goods"</text><polygon fill="#181818" points="543,1481.0547,533,1485.0547,543,1489.0547,539,1485.0547" style="stroke:#181818;stroke-width:1.0;"/><line style="stroke:#181818;stroke-width:1.0;" x1="537" x2="1436" y1="1485.0547" y2="1485.0547"/><text fill="#800080" font-family="sans-serif" font-size="13" font-weight="bold" lengthAdjust="spacing" textLength="30" x="1288" y="1479.9888">[35]</text><text fill="#000000" font-family="sans-serif" font-size="13" lengthAdjust="spacing" textLength="108" x="1322" y="1479.9888">Refund for goods</text><polygon fill="#181818" points="1107,1540.9922,1117,1544.9922,1107,1548.9922,1111,1544.9922" style="stroke:#181818;stroke-width:1.0;"/><line style="stroke:#181818;stroke-width:1.0;" x1="209" x2="1113" y1="1544.9922" y2="1544.9922"/><text fill="#800080" font-family="sans-serif" font-size="13" font-weight="bold" lengthAdjust="spacing" textLength="30" x="216" y="1539.9263">[36]</text><text fill="#000000" font-family="sans-serif" font-size="13" lengthAdjust="spacing" textLength="350" x="250" y="1539.9263">Facilitate transfer from Seller's bank to Platform's bank</text><polygon fill="#181818" points="543,1570.125,533,1574.125,543,1578.125,539,1574.125" style="stroke:#181818;stroke-width:1.0;"/><line style="stroke:#181818;stroke-width:1.0;" x1="537" x2="1436" y1="1574.125" y2="1574.125"/><text fill="#800080" font-family="sans-serif" font-size="13" font-weight="bold" lengthAdjust="spacing" textLength="30" x="1205" y="1569.0591">[37]</text><text fill="#000000" font-family="sans-serif" font-size="13" lengthAdjust="spacing" textLength="191" x="1239" y="1569.0591">Amount for "refund for goods"</text><polygon fill="#181818" points="1107,1630.0625,1117,1634.0625,1107,1638.0625,1111,1634.0625" style="stroke:#181818;stroke-width:1.0;"/><line style="stroke:#181818;stroke-width:1.0;" x1="209" x2="1113" y1="1634.0625" y2="1634.0625"/><text fill="#800080" font-family="sans-serif" font-size="13" font-weight="bold" lengthAdjust="spacing" textLength="30" x="216" y="1628.9966">[38]</text><text fill="#000000" font-family="sans-serif" font-size="13" lengthAdjust="spacing" textLength="376" x="250" y="1628.9966">Facilitate transfer from Seller's bank to Pre-funded account</text><polygon fill="#181818" points="660.5,1659.1953,650.5,1663.1953,660.5,1667.1953,656.5,1663.1953" style="stroke:#181818;stroke-width:1.0;"/><line style="stroke:#181818;stroke-width:1.0;" x1="654.5" x2="1436" y1="1663.1953" y2="1663.1953"/><text fill="#800080" font-family="sans-serif" font-size="13" font-weight="bold" lengthAdjust="spacing" textLength="30" x="1205" y="1658.1294">[39]</text><text fill="#000000" font-family="sans-serif" font-size="13" lengthAdjust="spacing" textLength="191" x="1239" y="1658.1294">Amount for "refund for goods"</text><text fill="#000000" font-family="sans-serif" font-size="11" lengthAdjust="spacing" textLength="106" x="765.5" y="1709.4058">Tax season to end</text><polygon fill="#181818" points="759,1743.1328,749,1747.1328,759,1751.1328,755,1747.1328" style="stroke:#181818;stroke-width:1.0;"/><line style="stroke:#181818;stroke-width:1.0;" x1="753" x2="930" y1="1747.1328" y2="1747.1328"/><text fill="#800080" font-family="sans-serif" font-size="13" font-weight="bold" lengthAdjust="spacing" textLength="30" x="827" y="1742.0669">[40]</text><text fill="#000000" font-family="sans-serif" font-size="13" lengthAdjust="spacing" textLength="63" x="861" y="1742.0669">Tax forms</text><!--SRC=[pLLDRzim3BtxLt0Pi6w75ksEGLOWIL5WXo96lPss7HYRThNAaYV9xJhqnu_wYEFq6ziEkoImI96FV8_KgyvWqo8uqh_0cPuoUobKXmPRCBfNLQcD8WD7XoE3fHyzgPBEo5fiQ2v5ew0IXaedj1evygyJfUXGkHohIgW6tey3hVNFpJadk22iEDKvrPmNQgclC-oTLdsxvkF9hDRAGQcbDX-wtdIIZcVhuo-7toRPNeQbqmOMW1OcY_w6p0HU6whOmZaWb-XgRTfi10ZoUV2UTzrazxm8vuKpeYEOboMtmTrnIObGNTunc02U4qT0-IeuhgvLGDGO8fKHLyUe65l95Haj8UOQFXT6L0qbx0L9IMOdI_4ymk8nX9-APS9Mx69RIoP_0urptzxUPaex0YoDjdOAIzssMWLEWv7xDzi_XiNKGupKWwwXqRgosHj8vWYIRwCiUwQ1mE5Fija2s9ZFfqmtYyawS1gOrV82BSNReylc0PzKVKIGuqrBN5qWUJ6-kbo2KBKUkG-M2pGDfK-eQGWvsnzypedrNtd8F1oeB4Q5RuFbXM-CzFLJbKhR6oShV90MXV8YnzOp1L-LvCaPPGPKcylChG-xqT4KJb386-xwZUvTDfo7keDCfd26hhmOXHSAFXSdoopQlIUJ_hWR6ryGRGEwCzff7iBGi6s6Waau5HWOI1Au9w32SPbeucW7nrYDXRTARmCBvQWnw1lzBWGPfF8H577fcEvbko99UoDfXKVmFkNpwdllPVGqdL4NMtpJMD2897_lockPTmLauFyIr-coIJjiQ0R0SASe-0ly4CzIuqveBRZHDQnH8kzL41RyzajkzsiSnwre4pa2yK7p9uFcZuMCnOq2xinOSkGPN2wpWuC3-CHjj8IMvvuF_UhWqt4pLzFWuuVo0JdCfIEZcEUh0ONbzNv5lBTXpP9FIplqlTHjHqoOYxQu57dTr58e-lzLyc-e2R5Z5dWPJIWT3xJgKVhvAdc0VP9LIBBQsRsXyJ2vAzm9-nUnjOi7v4VIyWF4ZtGRc4av-57fmdDmvA_7_c_MoocMGWeN7WBVt9gpraQtYT8zoqrHbnxHvj5EHpj0vd4tUI0FG7u6rVk_GcLeFwrWZ0_l5jXsQJ-3ZrNvHmFq6m00]--></g></svg>